<svg width="44" height="43" viewBox="0 0 44 43" fill="none" xmlns="http://www.w3.org/2000/svg">
<path fill-rule="evenodd" clip-rule="evenodd" d="M21.7173 0.000218183C9.72533 0.000218183 0 9.7242 0 21.7202C0 31.3162 6.22267 39.4562 14.8533 42.3282C15.94 42.5282 16.336 41.8575 16.336 41.2815C16.336 40.7655 16.3173 39.4002 16.3067 37.5882C10.2653 38.9002 8.99067 34.6762 8.99067 34.6762C8.00267 32.1669 6.57868 31.4989 6.57868 31.4989C4.60668 30.1522 6.72801 30.1789 6.72801 30.1789C8.90801 30.3322 10.0547 32.4176 10.0547 32.4176C11.992 35.7362 15.1387 34.7775 16.376 34.2215C16.5733 32.8189 17.1347 31.8615 17.7547 31.3189C12.932 30.7709 7.86134 28.9069 7.86134 20.5842C7.86134 18.2136 8.70801 16.2735 10.0973 14.7562C9.87335 14.2069 9.12801 11.9975 10.3107 9.00821C10.3107 9.00821 12.1333 8.42422 16.2827 11.2349C18.0147 10.7522 19.8733 10.5122 21.72 10.5029C23.5653 10.5122 25.4227 10.7522 27.1573 11.2349C31.304 8.42422 33.124 9.00821 33.124 9.00821C34.3093 11.9975 33.564 14.2069 33.3413 14.7562C34.7333 16.2735 35.5733 18.2136 35.5733 20.5842C35.5733 28.9282 30.4947 30.7642 25.6573 31.3016C26.436 31.9722 27.1307 33.2975 27.1307 35.3229C27.1307 38.2269 27.104 40.5695 27.104 41.2815C27.104 41.8629 27.496 42.5389 28.5973 42.3269C37.2213 39.4482 43.4387 31.3135 43.4387 21.7202C43.4387 9.7242 33.7133 0.000218183 21.7173 0.000218183" fill="white"/>
</svg>
