<svg width="64" height="53" viewBox="0 0 64 53" fill="none" xmlns="http://www.w3.org/2000/svg">
<path d="M20.509 0C12.729 0 5.366 4.786 0 4.786V43.483C5.366 43.483 12.729 38.697 20.509 38.697C25.093 38.697 27.966 40.587 29.692 42.479H34.309C36.036 40.589 38.908 38.697 43.492 38.697C51.272 38.697 58.635 43.483 64.001 43.483V4.786C58.635 4.786 51.272 0 43.492 0C34.324 0 32.001 7.565 32.001 7.565C32.001 7.565 29.677 0 20.51 0H20.509ZM20.509 42.964C12.73 42.964 5.367 47.75 0 47.75V52.017C5.366 52.017 12.729 47.231 20.509 47.231C25.093 47.231 27.966 49.123 29.692 51.013H34.309C36.036 49.123 38.908 47.231 43.492 47.231C51.272 47.231 58.635 52.017 64.001 52.017V47.75C58.635 47.75 51.272 42.964 43.492 42.964C38.908 42.964 36.035 44.856 34.309 46.746H29.692C27.965 44.854 25.093 42.964 20.509 42.964V42.964Z" fill="white"/>
</svg>
