<svg width="72" height="76" viewBox="0 0 72 76" fill="none" xmlns="http://www.w3.org/2000/svg">
<path fill-rule="evenodd" clip-rule="evenodd" d="M25.6907 8.83019C25.3131 8.82044 24.9702 8.81158 24.6656 8.80095C22.4578 8.72386 20.7305 6.87159 20.8076 4.6638C20.8847 2.456 22.7369 0.728728 24.9447 0.805819C25.2121 0.815155 25.5343 0.822261 25.9061 0.830464C30.1143 0.923287 40.6914 1.15659 50.3375 6.35133C55.6861 9.23175 60.7917 13.6455 64.4235 20.3424C68.0442 27.0188 70.0621 35.7086 69.6699 46.9399C69.5928 49.1477 67.7406 50.875 65.5328 50.7979C63.325 50.7208 61.5977 48.8685 61.6748 46.6608C62.0286 36.5308 60.192 29.321 57.391 24.1562C54.6012 19.0118 50.7181 15.6426 46.5443 13.3949C38.6914 9.16583 29.9672 8.94059 25.6907 8.83019Z" fill="white"/>
<path fill-rule="evenodd" clip-rule="evenodd" d="M24.7483 25.5497C24.5057 25.5431 24.2827 25.5371 24.0814 25.5301C21.8736 25.453 20.1463 23.6007 20.2234 21.3929C20.3005 19.1851 22.1527 17.4578 24.3605 17.5349C24.526 17.5407 24.7292 17.545 24.9668 17.5501C27.669 17.6079 34.8121 17.7605 41.3503 21.2001C45.0055 23.123 48.5308 26.0893 51.0411 30.6011C53.5426 35.0969 54.889 40.8617 54.6341 48.1591C54.557 50.3669 52.7048 52.0941 50.497 52.017C48.2892 51.9399 46.5619 50.0877 46.639 47.8799C46.8542 41.7166 45.7025 37.4601 44.0504 34.4907C42.407 31.5372 40.123 29.594 37.6257 28.2802C32.8512 25.7684 27.5214 25.6245 24.7483 25.5497Z" fill="white"/>
<path fill-rule="evenodd" clip-rule="evenodd" d="M6.05284 9.94873C8.26197 9.94873 10.0528 11.7396 10.0528 13.9487L10.0528 56.5364C10.0528 58.4312 10.6602 59.9895 11.6202 60.9402C16.0359 65.313 19.8955 65.8218 22.7035 65.0729C25.7531 64.2595 28.4778 61.7246 29.9234 58.4586C31.3673 55.1964 31.2532 51.8985 29.6876 49.5533C28.1748 47.287 24.5731 44.8328 16.7028 44.8328C14.4936 44.8328 12.7028 43.0419 12.7028 40.8328C12.7028 38.6237 14.4936 36.8328 16.7028 36.8328C26.1401 36.8328 32.8205 39.8373 36.3413 45.1116C39.8094 50.3069 39.4807 56.6314 37.2388 61.6965C34.9986 66.758 30.5664 71.2554 24.7651 72.8027C18.7221 74.4143 12.0369 72.6118 5.99101 66.6246C3.14925 63.8104 2.05284 59.9921 2.05283 56.5364L2.05283 13.9487C2.05283 11.7396 3.8437 9.94873 6.05284 9.94873Z" fill="white"/>
</svg>
