<svg width="215" height="214" viewBox="0 0 215 214" fill="none" xmlns="http://www.w3.org/2000/svg">
<g>
    <path class="rope" d="M150.841 81.4863C148.809 81.4863 147.162 80.5021 147.162 79.2857V53.6435C147.162 52.4271 148.809 51.4429 150.841 51.4429C152.873 51.4429 154.52 52.4271 154.52 53.6435V79.2857C154.52 80.5021 152.873 81.4863 150.841 81.4863Z" />
    <path class="crane" d="M66.2195 192.732H22.0735C21.0568 192.732 20.085 192.291 19.3881 191.512C18.6929 190.733 18.3354 189.69 18.4019 188.625L29.4384 11.3119C29.5659 9.28295 31.1718 7.70947 33.11 7.70947H55.183C57.1212 7.70947 58.7253 9.28295 58.8547 11.3081L69.8912 188.625C69.9576 189.69 69.6002 190.733 68.905 191.512C68.208 192.291 67.2362 192.732 66.2195 192.732ZM26.0003 185.023H62.2928L51.7395 15.4187H36.5536L26.0003 185.023Z" />
    <path class="crane" d="M11.0365 65.5282C10.0898 65.5282 9.17732 65.1442 8.49113 64.4554C7.76722 63.7289 7.35767 62.7238 7.35767 61.6735V26.9819C7.35767 25.9316 7.76722 24.9228 8.49293 24.1963C9.21684 23.466 10.2048 23.0482 11.1964 23.131L32.2383 24.0946C33.2262 24.1398 34.1567 24.5991 34.816 25.3707C35.477 26.1424 35.8129 27.1588 35.75 28.194L33.7274 61.075C33.6053 63.04 32.091 64.5946 30.212 64.6775L11.1928 65.5244C11.1407 65.5282 11.0886 65.5282 11.0365 65.5282ZM14.7153 31.0096V57.6533L26.5979 57.1225L28.1661 31.6232L14.7153 31.0096Z" />
    <path class="crane" d="M58.1591 63.368C56.2299 63.368 54.615 61.7983 54.4893 59.7618L52.6139 29.2748C52.5475 28.1831 52.9265 27.1103 53.6576 26.3273C54.3887 25.5481 55.4036 25.1152 56.4454 25.1755L171.233 30.4191C178.361 30.7466 183.942 36.8561 183.942 44.3282C183.942 51.8003 178.361 57.9097 171.236 58.2372L58.3208 63.3642C58.2651 63.368 58.2112 63.368 58.1591 63.368ZM60.2213 33.0654L61.6008 55.5006L170.915 50.5355C174.093 50.3887 176.584 47.6633 176.584 44.3282C176.584 40.993 174.093 38.2677 170.911 38.1209L60.2213 33.0654Z" />
    <path class="angel" d="M103.122 81.3098C109.208 77.0843 116.944 75.5593 124.082 77.2007C129.606 78.4102 134.752 81.4588 138.581 85.798C139.057 84.9949 139.582 84.2216 140.187 83.5173C141.105 82.3255 142.354 81.4899 143.58 80.6854C144.79 79.8132 146.225 79.3677 147.644 79.0304C149.048 78.7 150.513 78.6269 151.936 78.8584C154.155 79.0183 156.266 79.9365 158.115 81.192C159.771 82.3296 161.126 83.8966 162.176 85.645C167.221 80.0516 174.494 76.7606 181.842 76.6969C187.288 76.6116 192.74 78.2707 197.296 81.3897C198.124 82.0181 198.951 82.6492 199.776 83.2817C202.548 85.6883 204.907 88.6272 206.612 91.9521C208.574 95.7442 209.721 99.9955 209.936 104.302C209.921 106.565 209.931 108.828 209.928 111.092C209.918 112.086 209.976 113.086 209.823 114.072C209.53 116.139 208.307 118.024 206.587 119.085C204.638 120.35 202.08 120.442 200.026 119.392C200.051 121.233 200.13 123.144 199.451 124.883C198.621 127.169 196.64 128.915 194.377 129.483C192.64 129.909 190.757 129.672 189.188 128.775C189.161 130.192 189.293 131.635 188.96 133.025C188.593 134.829 187.675 136.51 186.368 137.75C184.591 139.512 182.073 140.418 179.635 140.184C178.154 140.08 176.717 139.528 175.478 138.683C174.768 141.995 172.401 144.82 169.387 146.056C169.965 148.111 170.536 150.168 171.121 152.22C171.323 152.882 171.287 153.615 171.073 154.27C170.869 154.872 170.329 155.222 169.869 155.596C166.238 158.492 161.942 160.415 157.485 161.406C155.149 161.945 152.751 162.105 150.365 162.167C147.665 162.119 144.948 161.913 142.32 161.23C137.664 160.095 133.208 157.907 129.551 154.664C128.998 154.197 128.702 153.402 128.866 152.671C129.584 150.454 130.149 148.183 130.806 145.944C127.813 144.776 125.445 142.014 124.68 138.769C123.071 139.778 121.156 140.239 119.288 140.04C116.663 139.81 114.196 138.238 112.756 135.938C111.948 134.672 111.484 133.183 111.341 131.672C111.285 130.663 111.306 129.65 111.304 128.64C109.709 129.551 107.788 129.783 106.028 129.326C104.187 128.831 102.525 127.57 101.556 125.851C101.06 124.975 100.727 123.997 100.597 122.988C100.373 121.757 100.477 120.5 100.466 119.257C98.9181 120.038 97.0895 120.201 95.4447 119.671C93.5034 119.051 91.8354 117.503 91.0894 115.519C90.6983 114.549 90.5649 113.491 90.5623 112.446C90.5649 110.008 90.5649 107.572 90.5623 105.134C90.5131 103.812 90.6659 102.492 90.8563 101.187C91.8185 94.6648 94.972 88.5094 99.6796 84.1038C100.712 83.0257 101.968 82.2307 103.122 81.3098ZM105.309 84.6672C104.307 85.4703 103.21 86.1556 102.313 87.0941C97.1944 91.8546 94.1976 99.0434 94.4436 106.211C94.4579 108.468 94.4126 110.727 94.467 112.984C94.5123 114.579 95.8993 115.945 97.421 115.918C98.7938 115.968 100.101 114.866 100.33 113.448C100.549 111.998 100.419 110.525 100.463 109.065C100.502 108.01 101.46 107.127 102.464 107.195C103.465 107.205 104.346 108.146 104.333 109.193C104.347 112.713 104.333 116.233 104.338 119.752C104.324 120.699 104.35 121.649 104.469 122.587C104.675 123.914 105.684 125.018 106.911 125.37C108.462 125.847 110.263 124.996 110.9 123.435C111.603 121.741 111.162 119.864 111.33 118.085C111.478 117.102 112.402 116.34 113.35 116.424C114.332 116.452 115.191 117.377 115.178 118.408C115.184 122.016 115.178 125.624 115.18 129.233C115.182 130.236 115.111 131.262 115.375 132.239C115.709 133.629 116.666 134.809 117.875 135.46C119.707 136.468 122.157 136.106 123.588 134.52C124.51 133.573 124.976 132.248 125.084 130.919C124.189 130.169 123.223 129.179 123.246 127.891C124.58 119.557 129.051 111.727 135.698 106.859C137.383 105.578 139.249 104.593 141.158 103.735C138.913 101.646 137.413 98.7224 136.879 95.6386C136.553 93.8048 136.628 91.9142 136.974 90.0899C133.628 85.599 128.736 82.3946 123.412 81.2041C117.26 79.7428 110.57 81.0321 105.309 84.6672ZM175.969 81.6226C171.23 82.935 166.927 85.8617 163.817 89.8204C164.045 90.935 164.189 92.0699 164.172 93.2116C164.176 97.3342 162.354 101.386 159.365 104.061C163.91 106.071 167.878 109.408 170.856 113.512C173.893 117.675 175.93 122.61 176.825 127.758C176.883 128.101 176.878 128.461 176.767 128.793C176.462 129.566 175.99 130.273 175.329 130.756C175.522 131.557 175.536 132.415 175.913 133.159C176.372 134.179 177.125 135.069 178.091 135.583C179.392 136.297 181.007 136.353 182.348 135.725C183.68 135.119 184.748 133.875 185.113 132.397C185.423 131.233 185.286 130.014 185.312 128.824C185.314 125.395 185.308 121.965 185.314 118.536C185.304 117.507 186.165 116.583 187.147 116.559C188.157 116.468 189.131 117.35 189.183 118.41C189.21 119.536 189.177 120.663 189.193 121.789C189.265 123.065 189.765 124.418 190.865 125.093C192.387 126.145 194.641 125.588 195.572 123.956C196.124 123.077 196.097 121.994 196.153 120.986C196.16 117.102 196.145 113.218 196.159 109.332C196.144 108.285 197.022 107.343 198.023 107.332C199.029 107.259 199.993 108.147 200.029 109.206C200.072 110.666 199.942 112.138 200.163 113.589C200.377 114.869 201.468 115.914 202.704 116.033C203.628 116.159 204.577 115.78 205.218 115.083C205.809 114.464 206.048 113.571 206.046 112.715C206.056 110.007 206.042 107.297 206.052 104.588C205.765 97.4954 202.396 90.6113 197.057 86.2287C195.965 85.4242 194.934 84.5155 193.733 83.8898C188.399 80.7437 181.871 79.9162 175.969 81.6226ZM149.148 82.8862C147.939 83.0758 146.73 83.4307 145.69 84.1187C145.058 84.5277 144.418 84.9313 143.838 85.4202C141.614 87.4977 140.366 90.6547 140.569 93.771C140.701 96.0395 141.587 98.2471 143.021 99.9535C144.493 101.653 146.49 102.867 148.661 103.257C150.703 103.622 152.878 103.373 154.737 102.39C156.917 101.311 158.665 99.3414 159.565 97.0051C160.37 94.9533 160.509 92.6293 159.966 90.4867C159.436 88.3997 158.263 86.5036 156.679 85.1209C155.937 84.5074 155.099 84.0333 154.25 83.604C153.164 83.0663 151.954 82.9363 150.776 82.805C150.232 82.7589 149.687 82.8185 149.148 82.8862ZM145.873 106.683C141.6 121.918 137.315 137.149 133.04 152.382C136.08 154.777 139.634 156.43 143.341 157.311C145.685 157.901 148.108 158.072 150.513 158.11C152.48 158.033 154.459 157.924 156.39 157.496C160.256 156.681 163.992 155.071 167.183 152.63C162.912 137.386 158.62 122.148 154.347 106.905C151.588 107.733 148.587 107.666 145.873 106.683ZM133.577 114.251C130.416 117.993 128.254 122.622 127.257 127.499C129.417 129.531 131.941 131.142 134.66 132.216C136.917 124.162 139.182 116.109 141.443 108.056C138.432 109.493 135.78 111.681 133.577 114.251ZM158.77 108.25C161.016 116.272 163.28 124.29 165.521 132.313C168.215 131.255 170.706 129.64 172.846 127.636C172.072 123.826 170.577 120.18 168.466 116.972C166.005 113.281 162.688 110.153 158.77 108.25ZM128.737 133.691C128.103 135.238 128.088 137.047 128.706 138.603C129.29 140.128 130.49 141.346 131.899 142.045C132.445 140.069 133.012 138.1 133.559 136.122C131.884 135.468 130.258 134.673 128.737 133.691ZM166.627 136.227C167.174 138.2 167.736 140.168 168.286 142.14C169.596 141.466 170.72 140.345 171.313 138.941C172.014 137.343 172.028 135.441 171.366 133.827C169.87 134.794 168.271 135.576 166.627 136.227Z"  stroke="black" />
    <path class="wingCircle" d="M117.628 87.6844C121.692 87.312 125.863 88.4104 129.263 90.7723C129.894 91.1488 130.311 91.8937 130.252 92.6616C130.226 93.7356 129.254 94.6606 128.227 94.5712C127.708 94.5807 127.269 94.2611 126.845 93.9902C124.097 92.1307 120.712 91.3804 117.47 91.7799C113.328 92.2824 109.462 94.7581 107.153 98.3877C106.134 99.9276 105.493 101.695 105.015 103.488C104.77 104.44 103.789 105.085 102.863 104.914C101.915 104.784 101.156 103.831 101.219 102.83C101.289 102.108 101.552 101.428 101.772 100.747C103.367 95.5612 107.241 91.2314 112.037 89.1336C113.813 88.3508 115.707 87.8524 117.628 87.6844Z"  stroke="black" />
    <path class="wingCircle" d="M179.664 87.8269C184.229 87.384 188.926 88.8223 192.543 91.768C195.456 94.1259 197.69 97.4074 198.788 101.09C199.064 101.996 199.534 103.01 199.076 103.941C198.591 105.065 197.068 105.437 196.154 104.657C195.409 104.1 195.394 103.067 195.069 102.255C193.814 98.0981 190.708 94.6242 186.858 92.972C182.565 91.0732 177.385 91.5228 173.492 94.2247C172.974 94.6121 172.319 94.8315 171.687 94.6513C170.807 94.4238 170.154 93.492 170.241 92.5413C170.272 91.9345 170.589 91.359 171.072 91.0204C173.613 89.2137 176.604 88.1099 179.664 87.8269Z"  />
</g>
<defs>
<clipPath id="clip0">
<rect width="215" height="214" />
</clipPath>
</defs>
</svg>
