<svg xmlns="http://www.w3.org/2000/svg" width="190" height="193" fill="none" viewBox="0 0 190 193">
  <g class="Group">
    <path  fill-rule="evenodd" d="M29.092 68.214c6.179-12.356 32.181-20.85 35.27-2.317.516 2.317.773 8.752-.514 10.811-1.03 1.802-2.832 2.832-4.12 4.376-1.03 1.03-3.861 5.406-5.663 5.663-5.664 1.03-20.081-4.633-24.973-8.752-2.575-2.316-1.287-6.95 0-9.781z" class="petals" clip-rule="evenodd"/>
    <path  fill-rule="evenodd" d="M50.718 54.056c0 .258 0 0 0 0 2.06.258 9.525-.257 13.13 7.208 1.03 2.574 1.287 5.405 1.544 7.98.258.257.258.257.258-.515 1.03-4.634.515-8.237-.515-12.613-2.832-9.782-7.209-13.386-13.13-20.85-.258-.258 0 5.663-.773 8.494-.257 1.03-.772 2.06-1.03 2.832 0 .772 0 7.207.516 7.464z" class="petals" clip-rule="evenodd"/>
    <path  fill-rule="evenodd" d="M35.786 59.72c4.634-3.09 8.496-4.891 13.902-5.406.258 0-.257-5.92-.257-7.208 0-1.287.772-3.603 1.287-4.89.257-2.06.257-3.604-1.03-4.634-2.832-2.831-10.298-6.692-12.1-1.03-.258 1.288-.258 3.09 0 4.377v2.574c5.664.257 8.496 7.207 8.496 7.207-2.575-4.118-4.12-6.178-8.496-6.95-1.03-.257.257-4.633-1.287-6.178-1.803-1.802-5.407-3.089-7.981-2.831-6.437 1.03-4.377 11.068-3.347 15.187 1.03 4.89 2.317 9.524 8.753 10.296.773 0 1.545-.257 2.06-.515z" class="petals" clip-rule="evenodd"/>
    <path  fill-rule="evenodd" d="M27.29 77.223c0-.257 0-.257-.258-.515 0 0-8.753-.515-9.783-.772-7.466-1.545-10.298-4.119-10.04-3.347 2.574 8.238 14.16 16.732 22.14 19.564 19.824 7.207 26.518-4.891 24.973-4.634-1.544.258-3.09.258-4.891 0-4.377-.515-20.082-5.92-22.141-10.296z" class="petals" clip-rule="evenodd"/>
    <path  fill-rule="evenodd" d="M23.428 56.63c.257 0 4.377 1.545 4.377 1.802 1.287 1.802 3.861 2.317 6.178 2.574l-2.317 2.317c-3.346 3.346-5.149 6.693-4.891 11.84 0 .773-1.03.258-1.802.258-1.803-.257-3.605-8.494-3.605-10.039-.257-1.802-1.287-9.524 2.06-8.752z" class="petals" clip-rule="evenodd"/>
    <path  fill-rule="evenodd" d="M27.29 92.925s-14.418 1.287-19.567-7.207c-4.12-6.693-1.802-13.386-1.545-12.614 2.575 6.693 9.269 12.614 15.448 16.732 2.06 1.287 3.604 2.06 5.663 3.089z" class="petals" clip-rule="evenodd"/>
    <path  fill-rule="evenodd" d="M6.694 71.045c.515 0 1.287.515 2.06.772 2.059 1.03 5.406 2.317 6.693 2.574 2.317.515 5.15.773 7.466.773.258 0-2.06-4.376-2.574-11.584 0-.515-.258-4.633.257-5.405.258-.773-8.496 1.287-11.328 2.831-2.06.772-3.09 9.524-2.574 10.039z" class="petals" clip-rule="evenodd"/>
    <path  fill-rule="evenodd" d="M36.3 95.242c-1.287 1.801-1.287 3.088-1.287 5.148.258 3.346 1.287 4.633 2.832 7.465.258 1.029.515 1.802.515 2.059 0 1.802 2.575-2.832 3.09-2.832.257 0 .514.258.772.258 1.287-.772 1.287-3.346 1.802-3.604l.515.515s0 .257.257.257c.258-.257.515-2.059.515-2.316v-2.317c.258 0 .515.515.773.515.515 0 0-3.09.257-3.347 0-.257.515 0 .515-.257.515-.515 0-1.802 0-2.317-.257-.257-3.09.515-3.862.258 0 0 1.545 2.831 2.06 3.346 0 .515.257.515 0 .515 0-.257-.515-.772-.773-1.287-.257-.515-.514-.772-.514-1.03-.258-.257-.258-.515-.515-.772 0-.257-.515-.515-.515-.515-.515 0-.773-.257-1.03 0-.515.258.515 2.317.772 2.832 1.03 1.802 1.545 4.376 1.545 4.118 0-.257-.257-.772-.515-1.287-.257-.772-.257-1.287-.515-1.802-.515-1.03-1.03-1.802-1.544-2.831-.258-.258-.258-.515-.258 0-.257.515-.257 2.831-.257 2.831 0 1.03 1.802 5.663 1.287 5.921 0 0-1.03-3.604-1.03-3.861-.257-.515-.257-1.03-.515-1.03v2.574c0 .515.515 4.119.258 3.346 0 0-.515-4.118-.515-3.861-.515 0-.773 3.089-.773 3.604 0 0 0 1.802-.257 2.317-.258.257 0-.515 0-1.03v-1.802c.257-1.544.257-2.574.772-3.861 0-.257-.772.257-1.544 1.03-.515.514-1.03 1.287-1.288 1.544 0 .258-.257.258-.257.515-.258 0 .772-1.545 1.544-2.317.258-.257.773-.772 1.288-1.029.515-.773 1.03-3.09.257-3.09-.772.258-3.09 2.575-3.862 3.347 0 0 2.06-2.317 3.347-3.346.515-.258.773-.515.773-.773.257-.257.257-.514.257-.772 0 0 0-.257-.515-.257-.772.257-2.574 1.287-3.347 1.802-.257 0 0-.258.258-.258 1.03-.772 3.604-1.802 3.862-2.059l.257-.772s-3.862-.258-4.377 0c-.257 0-.515 0-.515.515z" class="leaves" clip-rule="evenodd"/>
    <path  fill-rule="evenodd" d="M50.46 95.242c0 .772.515 2.06 1.288 3.604 1.03 1.544 2.574 3.089 4.377 4.633 4.891 3.861 8.496 3.861 13.902 5.663.515 0 3.347.772 4.377 2.059.515.773 0-4.633-.258-5.405-.257-1.802-.772-2.832-.515-3.089 0-.257 1.03 0 1.03-.515.258-.515-.515-1.802-.772-2.831-.515-.773-2.06-3.604-1.802-4.119 0-.515.772-.257 1.287-.257.515 0 .772.257.515-.515-1.287-4.376-5.664-5.92-5.407-6.178.258 0 1.287 0 1.545-.257 1.03-1.03-4.377-3.09-4.377-4.634-.257-.515.515-.772.515-1.287-.257-.772-2.317-2.06-3.347-2.574-.257 0-1.544 1.03-2.832 2.317-1.03 1.287-2.317 2.831-2.574 3.346 0 0 6.694 1.03 7.98 1.544.773.258 1.03.258.773.258-.515-.257-1.802-.257-2.574-.515-1.03-.257-1.803-.257-2.317-.515-.773 0-1.03-.257-1.545-.257-.515 0-2.575-.258-2.575-.258-.515.773-.515.515-.772 1.03-.258 0 .515 1.03.515 1.287.772 1.03 4.12 1.802 5.149 2.06 3.862.772 7.981 3.088 7.466 3.088-1.802-.772-3.604-1.801-5.664-2.316-2.06-.773-3.604-.773-5.664-1.545-.772-.257-1.03-.515-.515.258.515.772 3.862 4.118 3.862 4.118 1.03.772 10.04 4.634 10.04 5.406 0 .257-8.753-4.376-9.01-4.119-.515.258 3.347 3.347 3.604 3.604.772.515 6.436 4.376 4.892 3.604-.258 0-5.664-4.119-5.922-3.347 0 .773 6.18 6.693 6.952 8.495 0 0-2.318-2.574-3.862-4.119-1.802-1.802-3.347-3.603-4.634-5.92 0 0-.773 6.178.515 8.494 0 .258-.515-.514-1.03-2.316-.258-2.06 0-3.861-.258-5.92 0-1.03-.257-1.545-.772-2.317-.515-.515-1.03-1.287-1.545-1.802-.772-.515-1.03-.773-1.287-.258-.772 1.287-.772 7.723-.515 9.525 0 .257-.515-2.317-.515-6.436 0-1.03.515-3.603.258-4.376-.258-.514-.515-.772-1.03-1.03-.258-.257-.258-.257-.773.258-.772 1.287-1.802 5.148-1.802 7.208v-1.287c0-2.317 1.802-7.208 1.802-7.723l-1.03-2.316c-.772 3.603-4.634 6.177-5.663 6.435-.515.257.257 1.287.515 2.059z" class="leaves" clip-rule="evenodd"/>
    <path  fill-rule="evenodd" d="M65.135 80.312c.515.515 1.545 1.544 3.09 2.317 1.544.772 3.861 1.544 6.178 1.801 6.18.773 9.011-.772 14.675-2.316.515 0 3.347-1.03 4.892-.258.772.258-2.575-3.86-3.09-4.633-1.03-1.287-2.06-1.802-2.06-2.317 0-.515.773-.515.773-1.03-.257-.514-1.287-1.544-2.317-2.059-.515-.514-3.347-2.059-3.604-2.574 0-.514.515-.772 1.03-1.03.514 0 .772 0 .257-.514-3.347-3.09-7.981-2.317-7.724-2.574 0-.258 1.03-.772 1.03-1.03.515-1.544-5.149-.515-6.179-1.544-.257-.515.258-1.03 0-1.545-.772-.772-5.921-1.287-5.664-.515.515 2.575.258 6.95 0 7.208 0 .257 8.239-2.832 7.981-2.574-.515.257-1.544.515-2.574 1.03-.257 0-5.407 1.801-5.407 1.801 0 1.03-.257 1.545-.772 2.06 0 .257 1.03.514 1.287.772 2.06-.258 3.862-.772 5.407-1.287 3.862-1.03 8.496-1.287 7.98-1.03-1.801.515-3.86.257-6.178.772-.258.258-6.179 1.802-6.179 2.06-.515.257 5.407 1.802 5.921 1.802 1.03 0 10.814-1.288 11.071-.515.257 0-6.694.514-7.724.772-1.03 0-1.802 0-1.802.257 0 0 .515.515 1.545.515.772.257 2.06.515 3.347.515 1.03.257 7.723.515 6.179 1.03-.258 0-7.209-.773-6.952 0 .258.514 8.496 2.574 10.299 3.603 0 0-3.347-1.03-5.407-1.544-2.574-.515-4.634-1.287-6.951-2.574-.258-.258 2.317 5.663 4.634 6.95 0 .257-.772-.258-1.802-1.545-1.545-1.544-2.317-3.346-3.347-4.89-1.03-1.03-4.377-3.09-5.406-2.317-1.03.772 3.604 7.98 4.376 8.752.258.257-1.544-1.545-3.862-5.148-.257-.773-1.287-3.347-2.06-3.861-.257-.258-1.801-.773-1.801 0 0 1.544 1.03 5.405 2.06 7.207 0 .257-.258-.515-.516-.772-1.287-2.06-1.802-7.465-2.317-7.723l-2.06-1.544c.258 3.346 0 6.693-1.802 8.495-.515.514 1.03 1.03 1.545 1.544z" class="leaves" clip-rule="evenodd"/>
    <path  fill-rule="evenodd" d="M62.56 46.077c.258-.515.773-1.287 1.803-2.06 1.03-.772 2.575-1.544 4.12-1.801 1.544-.515 3.346-.773 5.148-.773 2.06 0 4.12.515 5.407.515 1.544.258 2.317 0 3.09-.257.514 0 .772-.258.514.257-.257.772-1.03 2.317-1.802 3.346-.515 1.03-1.287 1.545-1.03 1.802 0 .258.515.258.515.773 0 .257-.772 1.03-1.287 1.544L77.75 50.71c-.515.258-1.03.772-1.03 1.03 0 .257.515.257.772.515.515 0 .772 0 .258.514-.258.258-1.545 1.03-2.318 1.545-.772.257-1.544.515-2.06.515-.514.257-.772.257-.772.514.258 0 .773.258 1.03.515 0 .258-.515.773-1.03.773-.514.257-1.03.257-1.544.514-.773 0-1.545.258-1.802.515 0 .515.257.772.257 1.03-.257.257-1.03.515-1.545.772H66.68c-.257 0-.257 0-.515-.515 0-.515-.257-1.802-.515-2.574-.257-.515-.257-1.287-.515-1.544 0-.258 4.12.772 4.892.772h.515c-.258 0-1.03-.258-1.802-.258-.515-.257-1.288-.257-1.545-.514-.515 0-.772 0-1.03-.258-.257 0-1.03-.257-1.03-.257-.257-.515-.515-1.03-.515-1.287 0-1.03 3.347-.515 4.12-.258 2.832.515 5.921-.257 5.921-.257-.257 0-1.287.257-2.06.257h-2.574c-1.287-.257-2.575-.514-4.12-.514-.514-.258-.772-.258-.257-.515.773-.258 3.605-1.545 3.605-1.545 1.544-.257 3.861-.514 4.891-.514 1.287 0 1.802 0 2.317-.258.515 0 .773-.257.773-.257h-.773c-.772 0-1.544.257-2.574.257h-2.06c-.772.258-1.287.258-1.287 0-.258 0 .257-.257.772-.515.773-.257 1.545-.515 2.575-.772.515-.257 5.149-1.287 4.119-1.287-.515 0-2.317.515-3.09.772 0 0-1.802.258-1.802 0 0-.515 3.347-1.802 3.862-2.06 0 0 2.317-1.029 2.832-1.544.258-.257-.772.258-1.287.773-.772.257-1.545.514-2.06.772-1.802.772-3.347 1.544-4.891 2.831-.258 0 1.287-3.86 1.802-4.633.257-.257.515-.772.772-1.03 0 0-.515.258-1.03 1.288-.514.514-.772 1.03-1.03 1.801-.257.515-.514 1.545-.772 2.06-.515.514-.772 1.03-1.287 1.287-.258.257-1.03.515-1.545.772-.515.257-.772.257-.772 0 0-.258.257-2.317 1.287-4.89.515-.773.772-1.545 1.03-1.545 0-.258-1.287 1.03-2.06 3.86-.257.773-.515 1.288-.515 1.803-.257.772-.514 1.03-.772 1.287 0 .257-.515.257-.772.514-.258 0-.258 0-.515-.257-.258-1.287.257-4.118.772-5.406 0 0-.257.515-.515.773-.515 1.544-.515 5.148-.772 5.663l-.515.772s-1.545-3.604-1.802-4.119c-.258-.514-.515-1.03-.515-1.544 0-.257 0-.515.515-.772z" class="leaves" clip-rule="evenodd"/>
    <path  fill-rule="evenodd" d="M19.051 41.443c-5.149-3.603-10.04-2.574-15.447-1.801-1.545.257-3.862-.773-3.604.257.257.772 3.09 4.89 3.09 5.148s-.773.258-.773.772c.257.773 3.862 3.347 3.862 3.861.257.515-1.03.515-1.03.773-.515.514 2.317 2.059 2.832 2.059 1.287.515 2.832.772 2.832.772-.258.258-1.03.515-1.03.772-.515 1.03 3.862.773 4.377 1.802.257.258-.258.773 0 1.03.514 1.03 2.317 1.287 2.574 1.287 1.545-.257 3.604-.772 3.862-1.03 1.802-2.831 6.436.258 6.179.258-.773-.773-6.18-4.376-5.922-4.891 0 0-6.693 1.03-7.466 1.03-.772.257-1.03.257-.515 0 .515 0 7.466-1.03 7.724-1.287 0-.258-1.545-1.802-1.802-1.802-1.03-.515-3.347 0-4.12 0-2.832.772-6.178.257-6.178.257 1.544-.257 3.09 0 4.634-.257.257 0 4.891-.515 4.891-.515.515-.258-3.604-2.06-4.119-2.06-1.03-.257-7.466-.514-8.238-.772-.258 0 5.149.258 5.921.258h1.287c0-.258-.514-.515-1.03-.772a32.413 32.413 0 00-2.574-.773c-.515 0-5.664-1.03-4.377-1.03.515 0 2.575.515 3.09.515.515 0 2.832.773 2.832.773 0-.773-6.951-3.347-7.981-4.376-.258-.258.772.257 1.544.772 2.575 1.287 4.635 1.544 7.21 3.604.256.257-1.288-3.861-2.06-4.634 0-.257-.258-.772-.773-1.287 0 0 .515.515 1.287 1.545.773 1.287 1.288 2.574 1.803 3.86.772 1.288 1.802 1.803 3.089 2.06.515.258 1.03.515 1.03.258-.515-2.575-1.545-5.406-2.575-6.95-.257 0 1.287 1.03 2.06 4.118.257.772.515 1.287.515 1.802.257.772.515 1.03.772 1.287 0 .257 1.03.772 1.287.515.515-.515-.515-5.148-.772-5.92 0 0 .258.514.515.772.515 1.544.772 5.663.772 5.92l7.981 7.207s-2.574-4.118-3.346-12.87c0-.515-3.862-2.317-4.12-2.317z" class="leaves" clip-rule="evenodd"/>
    <path  fill-rule="evenodd" d="M119.458 54.571c18.279-2.831 47.886 19.049 29.607 37.067-2.06 2.06-9.011 7.465-12.1 7.723-2.575.257-5.407-.773-7.981-1.288-2.06-.257-9.011 0-10.556-1.544-5.921-5.663-10.555-25.74-9.783-34.235.515-4.891 6.694-6.95 10.813-7.723z" class="petals" clip-rule="evenodd"/>
    <path  fill-rule="evenodd" d="M151.382 67.442c1.802 2.316 7.981 10.039 2.317 19.82-1.802 3.089-4.634 5.663-7.209 7.98-.257.257-.257.257.773 0 5.406-2.574 9.268-5.92 13.13-10.554 8.753-10.554 9.268-18.019 12.872-30.374 0-.515-6.179 4.118-9.783 5.405-1.545.773-2.832.773-4.119 1.287-.773.515-7.981 5.663-7.981 6.178v.258z" class="petals" clip-rule="evenodd"/>
    <path  fill-rule="evenodd" d="M133.875 55.343c6.694 2.574 11.843 5.406 16.735 11.069 0 0 6.179-5.149 7.466-5.92 1.287-1.03 4.634-1.803 6.436-2.575 2.832-1.03 4.119-2.317 4.377-4.633.772-5.406-.772-16.474-8.239-13.9-1.544.772-3.604 2.059-4.891 3.088-.258.258-2.575 2.06-2.575 2.317 4.12 6.435-1.544 14.93-1.544 14.93 2.574-6.178 3.604-9.267 1.029-14.93-.515-1.287 5.407-3.346 5.922-5.92.257-3.604-.773-8.495-3.347-11.326-5.922-6.178-15.447 3.86-19.309 8.237-4.377 5.148-8.496 10.039-4.377 17.761.515.772 1.545 1.287 2.317 1.802z" class="petals" clip-rule="evenodd"/>
    <path  fill-rule="evenodd" d="M108.13 59.462s0-.257.257-.515l-6.951-11.583c-4.12-9.267-3.347-14.415-3.862-13.643-6.951 9.524-7.724 28.83-4.634 39.641 7.723 27.543 26.26 25.226 24.715 23.94-1.287-1.545-2.574-3.347-3.861-5.406-2.575-5.148-9.011-26.514-5.664-32.434z" class="petals" clip-rule="evenodd"/>
    <path  fill-rule="evenodd" d="M127.696 39.384c0 .257 1.545 5.92 1.287 6.178-1.03 2.831.258 5.92 1.802 8.752.258 0-3.604-.773-3.861-.773-6.694-.772-11.586-.257-16.992 3.862-.773.514-1.287-1.03-1.802-1.802-1.288-2.06 6.693-10.297 8.238-11.841 1.802-1.545 9.526-8.495 11.328-4.376z" class="petals" clip-rule="evenodd"/>
    <path  fill-rule="evenodd" d="M90.366 71.818s-12.1-14.93-6.952-27.028c4.12-10.04 13.13-12.356 12.616-11.584-5.407 7.98-6.694 20.078-6.437 30.117.258 3.089.515 5.406.773 8.495z" class="petals" clip-rule="evenodd"/>
    <path  fill-rule="evenodd" d="M98.861 32.176c0 .515.258 1.545.515 2.832.515 3.089 2.06 7.722 2.575 9.267 1.03 3.089 3.089 6.178 4.891 9.01 0 .257 3.347-5.664 10.556-11.842.772-.515 5.149-3.86 6.179-4.118 1.287 0-7.981-8.237-11.843-10.297-2.575-1.544-12.873 4.119-12.873 5.148z" class="petals" clip-rule="evenodd"/>
    <path  fill-rule="evenodd" d="M95 83.401c-2.575 0-4.377 1.03-6.436 2.832-3.605 2.574-4.12 5.148-6.18 8.751-.772 1.288-1.287 1.802-1.802 2.06-2.06 1.544 4.892.772 5.664 1.287.258.257 0 .772.258.772 1.802 1.03 4.891-1.03 5.149-.772.257.257.257.772 0 1.03 0 .257-.258.514 0 .514.257.258 2.575-.772 2.832-1.03.515-.257 2.575-1.801 2.575-1.801 0 .257-.258 1.03 0 1.287.514.515 3.346-2.574 3.861-2.574.515 0 .515.514.773.514.772.258 2.059-1.287 2.317-1.801.257-.515-2.575-3.09-3.09-3.861 0 0-1.802 3.86-2.06 4.633-.514.515-.514.772-.514.257.257-.257.515-1.03.772-1.544.257-.772.515-1.287.772-1.545.258-.514.258-.772.258-1.03.257-.257.515-1.029.257-1.029-.257-.515-.257-1.03-.772-1.287-.772-.257-2.06 2.574-2.575 3.346-1.03 2.575-3.346 4.891-3.346 4.634.257 0 .772-.772 1.287-1.545.515-.514 1.03-1.287 1.287-2.059.772-1.287 1.03-2.317 1.802-3.604.515-.514.515-.772 0-.514-.772.257-3.347 2.059-3.347 2.059-.772.772-4.891 6.178-5.406 6.178 0 0 3.09-4.119 3.347-4.634.515-.515 1.03-.772.772-1.03l-1.03.515c-.515.515-1.287 1.03-1.802 1.545-.515.515-4.12 3.861-3.604 2.831.257-.257 4.119-3.603 4.119-3.86-.515-.258-4.12 1.801-4.634 2.316 0 0-2.06 1.287-3.09 1.287 0 .257.773-.257 1.545-.772.772-.258 1.287-.773 1.802-1.03 1.803-1.03 3.09-1.802 5.15-2.574 0 0-1.288-.515-2.575-.772-1.03-.258-2.317 0-2.832-.258-.258 0-.515.258-.773 0 0 0 2.318-.257 3.605 0 .772.258 1.802.515 2.317.515 1.287.258 4.377-1.03 3.862-1.802-.773-.772-5.407-1.544-6.694-1.802-.257 0 4.12.515 6.179 1.287.515.258 1.03.258 1.287.258.515 0 .772-.257 1.03-.515 0-.257.257-.257 0-.515-.772-.772-3.347-2.06-4.892-2.574 0 0 .515 0 .773.258 1.802.257 4.891 2.316 5.149 2.316h1.03c.257 0-2.575-4.376-3.347-5.148-.258-.257-.258 0-1.03 0z" class="leaves" clip-rule="evenodd"/>
    <path  fill-rule="evenodd" d="M106.07 98.846c-.772 1.03-2.06 2.316-2.832 4.376-.772 2.316-1.545 5.405-1.545 8.494-.515 8.237 2.06 12.356 4.377 19.821.258.257 1.802 4.376 1.03 6.178-.258 1.287 4.892-3.604 5.921-4.634 1.545-1.544 2.317-2.831 2.832-2.831.515-.258 1.03 1.029 1.545.772.772-.258 1.802-1.802 2.317-3.089.515-1.03 2.575-4.891 3.347-5.148.515-.258.772.515 1.287 1.029.258.773.258 1.287 1.03.258 3.604-4.634 2.06-10.811 2.317-10.554.258 0 1.03 1.287 1.545 1.287 2.059.515.257-6.95 1.545-8.494.514-.258 1.287.257 1.802-.258 1.03-.772.515-4.376.257-5.663 0-.515-2.059-1.03-4.634-1.287-2.317-.257-4.892-.257-5.406-.257-.258 0 3.861 8.237 4.376 9.781.258 1.287.515 1.545.258 1.03-.258-.515-1.03-1.802-1.545-3.089-.515-1.287-1.03-2.317-1.287-3.089l-.773-1.544c-.257-.515-1.544-3.09-1.802-3.09-1.03-.257-1.03-.257-1.545-.257-.514 0-.772 1.545-1.029 1.802-.515 1.545 1.287 5.921 1.802 7.208 2.059 4.89 2.574 11.068 2.317 10.553-.772-2.316-.772-5.405-1.802-7.979s-2.06-4.634-2.832-7.465c-.258-1.03-.258-1.545-.773-.515-.515 1.544-1.544 7.465-1.287 7.465 0 1.802 2.575 14.672 1.802 15.187-.257.257-2.059-12.613-2.574-12.87-.773-.258-1.03 6.177-1.03 6.692 0 1.287.257 10.554-.258 8.237-.257-.257 0-9.524-.772-9.266-1.03.514-2.574 11.84-3.862 14.415 0 0 .773-4.376 1.288-7.465.772-3.604 1.287-6.436 2.832-9.782.257 0-7.209 4.119-9.011 7.208 0 0 .257-1.287 1.802-2.832 2.06-2.059 4.377-3.089 6.436-4.891.773-1.029 1.287-1.544 1.802-2.574.258-1.029.773-2.317.773-3.346 0-1.03 0-1.802-.515-1.545-2.06 0-9.011 5.149-10.813 6.95-.258 0 1.802-2.574 6.694-5.663 1.029-.772 4.376-2.316 4.891-3.089.258-.772.258-1.287.258-1.801 0-.515.257-.773-.773-.773-2.059 0-6.951 2.06-9.268 3.347 0 .257.515-.515 1.03-.773 2.574-1.801 9.526-3.603 10.04-4.118l1.803-2.832c-4.377 2.06-10.556-.257-11.586-1.287-.515-.514-1.03 1.287-1.802 2.06z" class="leaves" clip-rule="evenodd"/>
    <path  fill-rule="evenodd" d="M133.875 103.479c-.257 1.03-.515 2.832-.257 5.148.515 2.317 1.545 5.406 3.089 8.237 3.862 7.208 7.981 9.525 13.903 14.415.257.515 3.604 3.089 4.119 5.149.257 1.029 2.317-5.921 2.575-6.951.514-2.316.514-3.861 1.029-4.118.515-.257 1.288.515 1.802 0 .515-.515.515-2.574.515-3.861-.257-1.287-.515-5.663 0-6.178.258-.515 1.03 0 1.545.515.772.257 1.03.515 1.03-.515.772-5.92-3.604-10.296-3.347-10.296.515 0 1.802.514 2.317.257 1.802-.515-3.604-5.92-3.089-7.98 0-.515 1.029-.515 1.287-1.287.515-1.287-2.832-7.207-3.604-6.435-2.317 2.832-7.467 5.663-7.981 5.663 0 0 9.525 6.95 9.01 6.693-.514-.258-1.802-1.287-2.832-2.06-.514-.257-6.436-4.376-6.693-4.376-.773.515-1.802.515-2.575.773-.257 0 0 1.544.258 1.801 1.802 2.06 3.604 3.604 5.406 5.149 4.119 3.089 7.981 8.237 7.466 7.979-1.802-1.801-3.604-4.376-5.664-6.177-.257-.258-6.951-5.406-6.951-5.406-.772-.257 2.06 7.207 2.317 7.722 1.03 1.545 9.783 11.069 9.526 12.098-.258 0-6.179-6.95-6.951-7.979-.773-1.03-1.545-1.802-1.803-1.802-.257 0 0 .772.515 2.059a30.79 30.79 0 002.06 4.119c.515 1.287 5.407 9.009 3.862 7.465-.258-.258-4.892-8.237-5.407-7.723-.515.773 3.862 11.584 3.862 14.158 0 .257-1.287-4.119-2.574-6.95-1.288-3.347-2.06-6.178-2.318-9.782 0-.257-4.376 7.208-4.119 10.554 0 .257-.515-1.03 0-3.089.773-2.831 2.06-5.148 2.832-7.722.515-1.545 0-6.95-1.544-7.465-1.545-.515-5.664 10.039-6.179 11.583 0 .258.515-3.089 2.832-8.237.515-1.029 2.574-4.118 2.574-5.148 0-.772-.515-2.831-1.545-2.059-1.802 1.287-5.149 5.405-6.178 7.722-.258.258.257-.515.514-1.287 1.288-2.831 6.437-7.722 6.694-8.237 0-.257 0-3.604-.257-3.604-3.347 2.832-7.209 5.148-10.556 4.634-.772-.258-.257 1.801-.515 2.831z" class="leaves" clip-rule="evenodd"/>
    <path  fill-rule="evenodd" d="M169.661 73.877c.773 0 2.06 0 3.605.515 1.544.515 3.604 1.802 5.149 3.089 1.802 1.544 3.604 3.089 4.891 5.148 1.545 2.06 2.575 4.89 3.604 6.435 1.03 1.802 1.803 2.574 2.575 3.09.515.514 1.03.514 0 .771-.772.258-3.089.515-4.634.773-1.802 0-2.832-.258-3.09 0-.257.257.258 1.03-.257 1.287-.515.257-1.802 0-2.832-.258-1.03 0-1.545-.257-2.317-.515-.772 0-1.545-.257-1.802-.257-.515.257-.258.772 0 1.287.257.515.257 1.03-.515.772-.515-.257-2.317-.772-3.347-1.287-1.287-.772-1.802-1.287-2.317-1.802-.515-.514-1.03-.772-1.03-.514 0 .257.258 1.03 0 1.544-.257.257-1.03 0-1.545-.515-.515-.257-1.029-1.03-1.802-1.544-.515-.773-1.544-1.287-2.059-1.287-.258 0-.515.772-1.03.772-.258.257-1.287-.515-1.802-1.03-.773-.515-1.03-1.03-1.288-1.287 0-.257 0-.257.515-1.03.515-.514 1.545-1.801 2.317-2.574.515-.514 1.03-1.287 1.545-1.801 0 0 2.06 5.148 2.832 6.177.515.773.515 1.03.257.515 0-.257-.514-1.287-.772-2.317-.515-.772-.772-1.544-1.03-2.059-.257-.515-.515-.772-.515-1.287-.257-.257-.514-1.287-.514-1.544.514-.515.772-1.03 1.029-1.287 1.288-.773 3.09 3.089 3.605 4.118 1.544 3.604 4.891 6.693 4.634 6.436-.258-.258-.773-1.288-1.545-2.06-.772-1.03-1.545-1.802-2.06-2.831-.772-1.802-1.287-3.09-2.574-4.891-.258-.515-.515-1.03.257-.515 1.03.257 4.635 2.574 4.635 2.574 1.287 1.287 3.346 3.861 4.119 4.891 1.03 1.287 1.544 2.06 2.059 2.574.515.515 1.03.772 1.03.515l-.772-.772c-.515-.773-1.287-1.802-2.06-2.574-.772-1.03-1.287-1.802-1.802-2.317-.772-.772-1.287-1.287-1.03-1.545 0-.257.515 0 1.288.515.772.515 1.802 1.287 2.831 2.06.515.514 5.407 4.89 4.377 3.603-.257-.515-2.317-2.059-2.832-2.831-.257 0-1.802-1.802-1.545-1.802.515-.257 4.377 2.06 5.15 2.574 0 0 2.832 1.544 4.119 2.06.257 0-1.03-.773-1.802-1.03-1.03-.515-1.803-1.287-2.832-1.802-2.06-1.287-3.862-2.317-6.437-3.09-.515 0 4.892-1.286 6.179-1.544h1.802c0 .258-.772-.257-2.317-.257-.772 0-1.544.257-2.574.515-1.03.257-2.06.515-3.09.515-.772.257-1.544 0-2.317-.258-.515-.257-1.544-.515-2.059-1.03-.515-.257-.773-.772-.515-1.03.257-.257 2.832-1.544 6.436-2.316 1.287-.257 2.06-.257 2.317-.257.258 0-2.06-.258-5.921 1.03-1.03.257-1.545.514-2.317.772-.773.257-1.545.514-1.803.257-.514 0-.772-.257-1.287-.515-.257-.257-.515-.257 0-.772 1.03-1.03 4.377-2.831 6.179-3.346.258 0-.515 0-1.03.257-2.059.515-6.179 3.346-6.694 3.346h-1.287s2.832-4.376 3.09-4.89l1.029-2.06c.515-.257.773-.257 1.545-.257z" class="leaves" clip-rule="evenodd"/>
    <path  fill-rule="evenodd" d="M141.084 22.395c-.258-8.495-5.149-12.87-10.298-18.534-1.287-1.544-2.06-4.633-2.832-3.603-.515 1.03-3.347 7.207-3.347 7.465-.258 0-1.03-.515-1.287-.258-1.03.772-.773 6.693-1.288 7.208-.514.514-1.544-.773-1.802-.773-1.03 0-.515 4.119 0 5.149.515 1.544 1.288 3.346 1.03 3.346-.257 0-1.03-.515-1.545-.515-1.287.515 2.06 4.89 1.545 6.435-.257.258-.772.258-1.03.515-1.03 1.545.515 3.604.515 3.861 1.545 1.545 3.604 3.604 4.377 3.604 4.119-.257 4.377 7.207 4.377 6.95.257-1.544-.258-10.296.514-10.296 0 0-6.178-6.436-6.951-7.465l-.515-.515c.773.515 7.209 7.465 7.724 7.465.257-.258.772-3.09.515-3.346-.258-1.288-2.575-3.862-3.347-4.377-2.832-2.831-4.892-6.95-4.634-6.692 1.287 1.544 2.059 3.604 3.604 5.148l4.634 4.633c.258.258-1.03-5.405-1.03-5.92-.772-1.287-5.406-8.752-5.664-9.781-.257-.258 3.862 5.92 4.12 6.692.515.772 1.03 1.287 1.287 1.287 0 0 0-.772-.257-1.544-.258-1.03-.515-2.06-1.03-3.347-.515-.772-3.09-7.207-2.06-5.663.258.258 1.287 3.09 1.545 3.862.257.514 1.545 3.603 1.545 3.346.514-.515-1.545-10.04-1.545-12.098.257-.258.257 1.287.515 2.316.772 3.861 1.802 6.436 1.544 10.812 0 .257 3.09-4.377 3.605-5.92.257-.258.515-.773.515-1.545 0-.258.257.772-.515 2.316-.515 1.802-2.06 3.347-2.832 5.149-.773 1.544-.515 3.346 0 4.89.257.772.515 1.545.772 1.287 2.317-2.316 4.634-5.92 5.407-8.237 0-.257-.258 2.317-2.832 5.663-.515.773-1.03 1.287-1.545 2.06-.515.514-1.03 1.03-1.03 1.544 0 .257.258 1.544.515 1.802 1.03.257 5.407-4.376 5.921-5.148 0 0-.257.514-.514.772-1.288 2.06-5.407 5.148-5.664 5.663 0 .257-1.803 14.415-1.803 14.415s2.575-6.178 11.586-13.9c.515-.258-.515-5.92-.515-6.178z" class="leaves" clip-rule="evenodd"/>
    <path  fill-rule="evenodd" d="M130.786 114.805c-.515 3.861-1.03 9.01-1.802 13.9 0 .773-2.317-2.059-2.832-2.574-.258-.515 2.317 5.148 2.317 5.663-.515 2.832-1.287 5.406-2.06 7.208-5.149 11.068-13.387 19.305-23.428 26.77-2.832-15.187-10.556-25.226-21.369-32.433-.772-.515-2.317-15.188-2.574-14.158-1.03 1.545-.258 11.841-1.287 11.069-3.605-2.574-9.784-5.921-13.645-8.237-12.873-7.723-11.328-18.791-15.19-28.315 0-.258-1.287.514-1.287.514-.773.515 3.347 16.217 3.604 17.247 1.802 4.118 3.347 6.95 5.15 9.009.771 1.03-17.765-.257-16.993.258.773 1.029 20.854 3.861 21.884 4.633 2.574 1.802 5.921 3.346 10.298 5.92 5.406 3.089 10.555 8.238 14.675 13.901.772 1.287-9.784.257-10.299.772-.772.257 13.388 4.118 13.645 4.891 5.15 9.524 6.952 20.335 3.605 29.859-1.287 3.861-3.605 7.465-3.862 9.524-.257 2.832 5.664 3.604 7.724 1.03 4.376-5.148 3.346-13.385 7.208-18.791 1.03-1.544 21.111-21.108 21.369-20.85 4.891.772 11.585 0 11.328-.258-.515-.514-7.466-2.316-9.783-3.603 0 0 3.089-6.436 4.119-13.128 1.287-7.208 2.574-14.415 1.544-25.999 0-1.287-1.287-1.287-1.544-.514-.258.772-.258 5.405-.515 6.692z" class="stem" clip-rule="evenodd"/>
  </g>
</svg>
