<svg width="205" height="264" viewBox="0 0 205 264" fill="none" xmlns="http://www.w3.org/2000/svg">
<path d="M144.36 29.4783C144.36 29.2344 144.072 28.9906 143.784 28.9906L138.023 28.2589L135.431 23.8692C135.143 23.3815 134.279 23.3815 134.279 23.8692L131.687 28.2589L125.926 28.9906C125.638 28.9906 125.35 29.2344 125.35 29.4783C125.35 29.7222 125.35 29.966 125.638 30.2099L129.959 33.6241L129.094 38.5016C129.094 38.7455 129.094 38.9893 129.383 38.9893C129.671 39.2332 129.959 39.2332 130.247 38.9893L135.431 36.7945L140.616 38.9893H140.904C141.192 38.9893 141.192 38.9893 141.192 38.9893C141.48 38.7455 141.48 38.5016 141.48 38.5016L140.616 33.6241L144.936 30.2099C144.36 29.966 144.648 29.7222 144.36 29.4783Z" fill="black"/>
<path d="M196.121 19.586C196.397 19.586 196.397 19.586 196.672 19.3515C196.948 19.1169 197.224 18.8823 196.948 18.6478L195.57 12.5491L200.807 8.09243C201.083 7.85787 201.083 7.6233 201.083 7.38874C201.083 7.15417 200.807 6.91961 200.256 6.91961L192.813 5.98136L189.505 0.351845C189.23 -0.117282 188.127 -0.117282 187.851 0.351845L184.544 5.98136L177.101 6.91961C176.825 6.91961 176.55 7.15417 176.274 7.38874C176.274 7.6233 176.274 8.09243 176.55 8.09243L181.787 12.5491L180.409 18.6478C180.409 18.8823 180.409 19.1169 180.684 19.3515C180.96 19.586 181.236 19.586 181.511 19.3515L188.127 16.5367L194.743 19.3515C195.845 19.586 195.845 19.586 196.121 19.586Z" fill="black"/>
<path d="M201.701 52.4227L203.076 48.4865C203.076 48.2549 203.076 48.0234 202.801 48.0234C202.526 47.7918 202.526 47.7918 202.251 48.0234L197.853 49.4126L194.004 47.0972C193.729 46.8656 193.18 47.0972 193.18 47.5603L193.454 51.4965L189.606 54.2751C189.331 54.2751 189.331 54.5066 189.331 54.7382C189.331 54.9697 189.606 54.9697 189.881 55.2013L194.554 56.1274L196.203 59.8322C196.203 60.0637 196.478 60.0637 196.753 60.0637C197.028 60.0637 197.303 60.0637 197.303 59.8322L199.777 56.359L204.45 56.1274H204.725L205 55.8959C205 55.6643 205 55.4328 205 55.4328L201.701 52.4227Z" fill="black"/>
<path d="M161.911 19.4673C161.911 19.7196 162.178 19.7196 162.178 19.7196L165.393 20.4763L166.464 23.2508C166.464 23.503 166.732 23.503 166.732 23.503C167 23.503 167 23.503 167 23.2508L168.607 20.7285L171.821 20.4763C171.821 20.4763 171.821 20.4763 172.089 20.4763C172.089 20.4763 172.089 20.4763 172.357 20.224C172.357 19.9718 172.357 19.9718 172.357 19.7196L170.214 17.4495L171.017 14.4228C171.017 14.1705 171.017 14.1705 171.017 13.9183C171.017 13.9183 170.749 13.9183 170.482 13.9183L167.535 14.9272L164.857 13.1616C164.589 12.9094 164.321 13.1616 164.321 13.4138L164.589 16.4406L162.178 19.2151C161.911 19.2151 161.911 19.2151 161.911 19.4673Z" fill="black"/>
<g clip-path="url(#clip0)">
<path d="M62.275 203.312C62.275 203.312 53.6567 202.588 53.1764 195.233C53.0859 194.627 53.2981 193.977 53.2077 193.371C53.2077 193.371 53.1937 191.207 58.3396 190.438C58.3396 190.438 58.8162 190.522 60.361 188.434L79.3225 162.081C79.2321 161.476 79.2703 160.697 79.6113 159.872C79.9452 157.965 80.6724 156.619 81.316 155.749C81.5735 155.401 81.9144 154.576 82.906 153.964C84.5865 152.784 86.6219 152.944 87.0985 153.028L108.043 125.45C108.043 125.45 114.789 117.789 116.63 114.574C116.63 114.574 118.168 111.404 120.408 109.832L151.909 67.9887C151.909 67.9887 157.096 60.2506 159.897 58.2847L178.055 34.8372C178.055 34.8372 179.342 33.0975 181.43 34.6423C181.43 34.6423 183.17 35.9296 182.14 37.3213C177.46 43.2815 173.083 49.1964 168.404 55.1566C167.715 55.7237 166.897 56.4648 166.383 57.1607C164.535 59.2936 162.99 61.3812 161.748 63.4236L138.319 95.0858C138.152 96.0392 137.638 96.735 136.994 97.6049C136.35 98.4747 135.616 98.7392 135.056 99.1323L124.243 113.746C124.03 114.396 123.689 115.221 122.917 116.265C122.273 117.135 121.585 117.702 121.153 117.921L116.474 123.881C116.474 123.881 112.58 130.962 108.075 137.05L92.9682 157.102C92.9682 157.102 94.0643 159.259 91.1348 161.399C90.8321 161.444 90.4459 161.966 90.1884 162.314C89.5448 163.184 89.3325 163.835 89.249 164.311C89.0368 164.962 88.6959 165.787 88.3549 166.611C87.2416 168.48 85.6899 169.485 84.827 169.924L66.6239 193.068C66.6239 193.068 67.205 195.921 65.5697 197.404C65.441 197.578 65.0096 197.797 64.7974 198.447C64.5851 199.098 64.6756 199.703 64.8496 199.832C65.3785 201.3 64.9993 202.904 64.1364 203.343C63.6597 203.259 63.2283 203.478 62.275 203.312Z" fill="black"/>
</g>
<defs>
<clipPath id="clip0">
<rect width="54.1043" height="270.521" fill="white" transform="translate(160.912 14.3447) rotate(36.5)"/>
</clipPath>
</defs>
</svg>
