<svg xmlns="http://www.w3.org/2000/svg" width="155" height="206" fill="none" viewBox="0 0 155 206">
  <g class="Group 19">
    <path class="star" d="M94.36 29.478c0-.244-.288-.487-.576-.487l-5.76-.732-2.593-4.39c-.288-.488-1.152-.488-1.152 0l-2.592 4.39-5.76.732c-.289 0-.577.243-.577.487s0 .488.288.732l4.32 3.414-.864 4.878c0 .243 0 .487.288.487.288.244.577.244.865 0l5.184-2.194 5.185 2.194h.576c.288-.243.288-.487.288-.487l-.864-4.878 4.32-3.414c-.576-.244-.288-.488-.576-.732z"/>
    <path class="star" d="M146.121 19.586c.276 0 .276 0 .551-.234.276-.235.552-.47.276-.704l-1.378-6.099 5.237-4.457c.276-.234.276-.469.276-.703 0-.235-.276-.47-.827-.47l-7.443-.938-3.308-5.63c-.275-.468-1.378-.468-1.654 0l-3.307 5.63-7.443.939c-.276 0-.551.234-.827.469 0 .234 0 .703.276.703l5.237 4.457-1.378 6.099c0 .234 0 .469.275.704.276.234.552.234.827 0l6.616-2.815 6.616 2.815c1.102.234 1.102.234 1.378.234z"/>
    <path class="star" d="M151.701 52.423l1.375-3.937c0-.231 0-.463-.275-.463-.275-.231-.275-.231-.55 0l-4.398 1.39-3.849-2.316c-.275-.231-.824 0-.824.463l.274 3.936-3.848 2.78c-.275 0-.275.23-.275.462s.275.232.55.463l4.673.926 1.649 3.705c0 .232.275.232.55.232s.55 0 .55-.232l2.474-3.473 4.673-.232h.275l.275-.231v-.463l-3.299-3.01z"/>
    <path class="star" d="M111.911 19.467c0 .253.267.253.267.253l3.215.756 1.071 2.775c0 .252.268.252.268.252.268 0 .268 0 .268-.252l1.607-2.523 3.214-.252h.268l.268-.252v-.504l-2.143-2.27.803-3.027v-.505h-.535l-2.947 1.01-2.678-1.766c-.268-.253-.536 0-.536.252l.268 3.027-2.411 2.774c-.267 0-.267 0-.267.252z"/>
    <path class="wand" d="M12.275 203.312s-8.618-.724-9.099-8.079c-.09-.606.122-1.256.032-1.862 0 0-.014-2.164 5.132-2.933 0 0 .476.084 2.021-2.004l18.962-26.353a4.185 4.185 0 01.288-2.209c.334-1.907 1.061-3.253 1.705-4.123.258-.348.598-1.173 1.59-1.785 1.68-1.18 3.716-1.02 4.193-.936l20.944-27.578s6.746-7.661 8.587-10.876c0 0 1.538-3.17 3.778-4.742l31.501-41.843s5.187-7.738 7.988-9.704l18.158-23.448s1.287-1.74 3.375-.195c0 0 1.74 1.288.71 2.68-4.68 5.96-9.057 11.874-13.736 17.835-.689.567-1.507 1.308-2.021 2.004-1.848 2.133-3.393 4.22-4.635 6.263L88.319 95.086c-.167.953-.681 1.649-1.325 2.519-.644.87-1.378 1.134-1.938 1.527l-10.813 14.614c-.213.65-.554 1.475-1.326 2.519-.644.87-1.332 1.437-1.764 1.656l-4.68 5.96s-3.893 7.081-8.398 13.169l-15.107 20.052s1.096 2.157-1.833 4.297c-.303.045-.69.567-.947.915-.643.87-.855 1.521-.939 1.997-.212.651-.553 1.476-.894 2.3a8.847 8.847 0 01-3.528 3.313l-18.203 23.144s.581 2.853-1.054 4.336c-.129.174-.56.393-.773 1.043-.212.651-.121 1.256.053 1.385.529 1.468.15 3.072-.714 3.511-.476-.084-.908.135-1.861-.031z"/>
  </g>
</svg>
