<svg width="176" height="118" viewBox="0 0 176 118" fill="none" xmlns="http://www.w3.org/2000/svg">
<path d="M95 96.5L141 95.5" stroke="black" stroke-opacity="0.35" stroke-width="4" stroke-linecap="round"/>
<path d="M38.2494 26.4383C37.3869 25.7482 36.1283 25.8881 35.4383 26.7506C34.7482 27.6131 34.8881 28.8717 35.7506 29.5617L38.2494 26.4383ZM74.5 58L76.0052 59.317L77.3815 57.744L75.7494 56.4383L74.5 58ZM37.9948 96.683C37.2675 97.5143 37.3517 98.7778 38.183 99.5052C39.0143 100.233 40.2778 100.148 41.0052 99.317L37.9948 96.683ZM35.7506 29.5617L73.2506 59.5617L75.7494 56.4383L38.2494 26.4383L35.7506 29.5617ZM72.9948 56.683L37.9948 96.683L41.0052 99.317L76.0052 59.317L72.9948 56.683Z" fill="black" fill-opacity="0.35"/>
<path d="M2 116V7.06667L174 2V111.44L2 116Z" stroke="black" stroke-opacity="0.35" stroke-width="4" stroke-linecap="round" stroke-linejoin="round"/>
</svg>
